<?xml version="1.0" encoding="utf-8"?>
<svg version="1.1"
     id="Layer_1"
     xmlns="http://www.w3.org/2000/svg"
     x="0px"
     y="0px"
     viewBox="0 0 113.4 113.4"
     style="enable-background:new 0 0 113.4 113.4;"
     xml:space="preserve">
<path id="XMLID_58_"
      style="fill-rule:evenodd;clip-rule:evenodd;fill:#1B1A19;"
      d="M3.4,23.8L26.3,0h77.3c2.6,0,5.1,1,6.9,2.8
	c1.8,1.8,2.9,4.2,2.9,6.8v75.3l-21.5,24.7c-0.3,0.3-0.6,0.7-0.9,1c-1.8,1.8-4.3,2.8-6.9,2.8H9.8c-2.6,0-5.1-1-6.9-2.8
	C1,108.8,0,106.3,0,103.8V31c0-2.5,1-5,2.8-6.7C3,24.2,3.2,24,3.4,23.8"/>
    <path id="XMLID_57_"
          style="fill:#FFFFFF;"
          d="M6.7,27.3l21-21.8l0.6-0.7h0.9h74.3c1.3,0,2.6,0.5,3.5,1.4l0,0
	c0.9,0.9,1.4,2.1,1.4,3.4v72.8v0.8l-0.5,0.6l-19.9,22.9c-0.2,0.2-0.3,0.4-0.5,0.6c-0.9,0.9-2.1,1.4-3.5,1.4H9.8
	c-1.4,0-2.6-0.5-3.5-1.4l0,0c-0.9-0.9-1.4-2.1-1.4-3.4V31c0-1.3,0.6-2.5,1.4-3.4l0,0C6.4,27.5,6.6,27.4,6.7,27.3"/>
    <path style="fill:#1B1A19;"
          d="M85.3,103.3V29.3h-75v73.9H85.3z M8.1,29.3l0.1-1.1l0,0c0.1-0.2,0.2-0.4,0.4-0.5
	c6.5-6.4,14.1-13.1,20.9-19.4L29.8,8h0.4l73.5,0h1.6v1.5v72.2v0.4l-0.2,0.3l-17.6,22c0,0.1,0,0.1-0.1,0.2c0,0-0.6,0.7-0.7,0.8
	l-76.9,0.2c-0.2,0-0.4,0-0.6-0.1l0,0l-0.1,0l-0.5-0.3c-0.1-0.1-0.3-0.3-0.4-0.5c-0.1-0.2-0.1-0.4-0.1-0.6V29.3z M85.9,27.2
	l15.8-17.1l-71.1,0L12.5,27.2H85.9z M103.1,11.8L87.5,28.7v72l15.6-19.5V11.8z"/>
    <polygon
            id="XMLID_52_"
            style="fill:#E8AB59;"
            points="88.9,10.1 98.1,14 101.7,10.1 "/>
    <path id="XMLID_51_"
          style="fill:#E8AB59;"
          d="M27.5,13.1c1.1,0.1,11.4-3,11.5-3h-8.3L27.5,13.1z"/>
    <polygon
            id="XMLID_50_"
            style="fill:#E8AB59;"
            points="26.1,27.2 16.7,23.3 12.5,27.2 "/>
    <polygon
            id="XMLID_49_"
            style="fill:#EAA573;"
            points="92.9,19.7 69.3,27.2 32.6,27.2 19.1,21 23.1,17.2 44.7,10.1 82.7,10.1
	96.3,15.9 "/>
    <polygon
            id="XMLID_48_"
            style="fill:#E8AB59;"
            points="76.4,27.2 89.8,23.1 85.9,27.2 "/>
    <path style="fill-rule:evenodd;clip-rule:evenodd;fill:#1B1A19;"
          d="M88.9,10.1l9.2,4L96.4,16l-13.7-5.9H88.9z M27.5,13.1
	c1.1,0.1,11.5-3,11.5-3h5.7l-21.6,7.1L27.5,13.1z M19.1,21l13.5,6.2h-6.4l-9.4-4L19.1,21z M76.4,27.2l13.4-4.2l3.1-3.4l-23.6,7.6
	H76.4z"/>
    <polygon
            id="XMLID_43_"
            style="fill:#A2753B;"
            points="30.4,29.3 10.3,29.3 10.3,103.3 47.9,103.3 47.9,49.5 "/>
    <polygon
            id="XMLID_42_"
            style="fill:#EAA573;"
            points="67.2,29.3 34.4,29.3 49.3,46.2 "/>
    <polygon
            id="XMLID_41_"
            style="fill:#A2753B;"
            points="85.3,103.3 85.3,29.3 71.5,29.3 50.6,49.5 50.6,103.3 "/>
    <polygon
            id="XMLID_40_"
            style="fill-rule:evenodd;clip-rule:evenodd;fill:#1B1A19;"
            points="97,18.3 96.3,29.8 94.2,21.4 92.5,23.3
	94.8,31.7 94.8,92.6 97.5,91.4 97.5,31.2 99.5,15.7 "/>
    <polygon
            id="XMLID_39_"
            style="fill:#A2753B;"
            points="92.5,23.3 87.5,28.7 87.5,100.7 94.8,91.6 94.8,31.7 "/>
    <polygon
            id="XMLID_38_"
            style="fill:#EAA573;"
            points="97,18.3 94.2,21.4 94.2,21.4 96.3,29.8 "/>
    <polygon
            id="XMLID_37_"
            style="fill:#A2753B;"
            points="103.1,11.8 99.5,15.7 97.5,31.2 97.5,88.2 103.1,81.2 "/>
    <rect id="XMLID_36_"
          x="9.7"
          y="46.8"
          style="fill-rule:evenodd;clip-rule:evenodd;fill:#5F4322;"
          width="76.6"
          height="2.4"/>
    <rect id="XMLID_35_"
          x="9.7"
          y="67.4"
          style="fill-rule:evenodd;clip-rule:evenodd;fill:#5F4322;"
          width="76.6"
          height="2.4"/>
    <rect id="XMLID_34_"
          x="8.9"
          y="85.3"
          style="fill-rule:evenodd;clip-rule:evenodd;fill:#5F4322;"
          width="76.6"
          height="2.4"/>
    <polygon
            id="XMLID_33_"
            style="fill-rule:evenodd;clip-rule:evenodd;fill:#5F4322;"
            points="85.4,47.5 104.8,23.5 104.8,25.9
	85.4,49.9 "/>
    <polygon
            id="XMLID_32_"
            style="fill-rule:evenodd;clip-rule:evenodd;fill:#5F4322;"
            points="85.4,68.1 104.8,44.1 104.8,46.5
	85.4,70.5 "/>
    <polygon
            id="XMLID_31_"
            style="fill-rule:evenodd;clip-rule:evenodd;fill:#5F4322;"
            points="85.2,86.3 104.6,62.3 104.6,64.7
	85.2,88.7 "/>
    <rect id="XMLID_30_"
          x="47.2"
          y="47.3"
          style="fill-rule:evenodd;clip-rule:evenodd;fill:#1B1A19;"
          width="4.3"
          height="57.1"/>
    <polygon
            id="XMLID_29_"
            style="fill-rule:evenodd;clip-rule:evenodd;fill:#1B1A19;"
            points="94.4,30.2 97.7,29.5 97.7,88.8
	94.4,92.9 "/>
    <path style="fill-rule:evenodd;clip-rule:evenodd;fill:#1B1A19;"
          d="M29.7,25c3.1-1.9,17-13.4,17-13.4l38.6,0.9L69.3,25.2L29.7,25z
	 M68.1,17.3l-3.5,2.7l8.6,0.1l3.5-2.8L68.1,17.3z M63.3,21.1L60,23.7h8.6l3.3-2.6H63.3z M50.3,21.2l-3,2.5l9.7,0l3-2.5H50.3z
	 M54.7,17.3l-3.1,2.7H61l3.4-2.6L54.7,17.3z M59.8,13.4L56.1,16l9.6,0l3.7-2.6L59.8,13.4z M46.9,13.2l-3.6,2.7l8.7,0.2l4-2.8
	L46.9,13.2z M41.8,17.4l-3.4,2.5l9.7,0l2.8-2.4L41.8,17.4z M37.2,21l-3.9,2.8l10.8-0.1l3-2.5L37.2,21z M73.1,13.4l-3.7,2.6l8.8,0.2
	l4.1-2.7L73.1,13.4z"/>
    <polygon
            id="XMLID_18_"
            style="fill-rule:evenodd;clip-rule:evenodd;fill:#1B1A19;"
            points="34.4,29.3 49.3,46.2 67.2,29.3
	71.5,29.3 50.6,49.5 50.6,104 47.9,104 47.9,49.5 30.4,29.3 "/>
    <polygon
            id="XMLID_17_"
            style="fill-rule:evenodd;clip-rule:evenodd;fill:#1B1A19;"
            points="84.1,28.5 86.3,28.5 88.4,27
	88.4,102.1 86,103.7 84.1,103.7 "/>
    <rect id="XMLID_16_"
          x="8.9"
          y="28.8"
          style="fill-rule:evenodd;clip-rule:evenodd;fill:#1B1A19;"
          width="4.3"
          height="75"/>
    <polygon
            id="XMLID_15_"
            style="fill-rule:evenodd;clip-rule:evenodd;fill:#1B1A19;"
            points="103.1,10.6 105.2,10.6 105.2,82
	103.1,83.5 "/>
    <path style="fill-rule:evenodd;clip-rule:evenodd;fill:#1B1A19;"
          d="M63.3,58l0.4,2.4l6.5,0.6l1.6-2.5L63.3,58z M91.4,57.5l-0.1,0.5
	l-0.2,2.7l0.3,0.5l0.1-2L91.4,57.5z M88.5,63.6L87.6,62l0-4.9l3-6.2l1-2l0.9,2.1l2.8,6.9L95.1,61l-0.9,2.1l0.6,0.5l0.5,2.1l-0.7,2.2
	l-0.7,0.7l-1.2,1.2L91,69.4L89,69l-1.3-2.8L88.5,63.6z M24.2,73.1l-0.4-22.6h6L29.4,72l9.4-5.1l-1.6,23.4L29,81.7l-5.2-0.8l-0.1-7.8
	H24.2z M60.5,65.5l-1.7-0.2L56.6,53l24.8,0.2l-7.4,14L72,67l-0.5,25.4l-11.2-3.4l3.5-2.4l-3-1.9l1.9-1.7l-4.6-2l3.7-3.2l-4.1-1.9
	l3.8-2.4L58.1,71l3-2.5L59.5,66L60.5,65.5z"/>
    <path style="fill-rule:evenodd;clip-rule:evenodd;fill:#674B26;"
          d="M58,54.2l1.8,10l13.3,1.7l6.1-11.5L58,54.2z M61.8,56.7l0.8,4.8
	l8.2,0.8l3.1-4.8L61.8,56.7z"/>
    <polygon
            id="XMLID_7_"
            style="fill-rule:evenodd;clip-rule:evenodd;fill:#C6C5C6;"
            points="62.8,65.6 61.2,66.4 62.8,68.7
	60.1,70.9 63.8,73.4 60.3,75.6 64.1,77.4 60.4,80.6 65,82.6 62.9,84.5 66,86.5 63.1,88.5 70.3,90.7 70.8,66 "/>
    <polygon
            id="XMLID_6_"
            style="fill-rule:evenodd;clip-rule:evenodd;fill:#674B26;"
            points="25.1,51.7 28.5,51.7 28.1,73.5
	25.5,73.6 "/>
    <polygon
            id="XMLID_5_"
            style="fill-rule:evenodd;clip-rule:evenodd;fill:#C6C5C6;"
            points="24.9,74.3 25,79.9 29.2,80.1 28.9,74.3
	"/>
    <polygon
            id="XMLID_4_"
            style="fill-rule:evenodd;clip-rule:evenodd;fill:#C6C5C6;"
            points="37.4,69 29.6,73.3 29.8,80.8 36.2,87.4
	"/>
    <polygon
            id="XMLID_3_"
            style="fill-rule:evenodd;clip-rule:evenodd;fill:#674B26;"
            points="90.9,53.2 90.1,58 89.9,61.1 91.7,63.7
	90.9,65.1 88.8,61.7 88.8,57.4 "/>
    <polygon
            id="XMLID_2_"
            style="fill-rule:evenodd;clip-rule:evenodd;fill:#674B26;"
            points="92.2,53.5 92.8,59.2 92.7,61.3
	92.3,64.4 93.9,60.8 94.1,58.1 "/>
    <path id="XMLID_1_"
          style="fill-rule:evenodd;clip-rule:evenodd;fill:#C6C5C6;"
          d="M91.9,68.4l-1.2-1.1l-0.1-1.5l1.3-0.9
	c0,0,0.6,0.2,0.7,0.4c0.1,0.2,0.3,2,0.3,2l-0.2,0.8l0.9-0.8l0.5-1.6l-0.3-1.4l-1.3-1l-1.5,0.1L89.7,64l-0.6,2.1l0.8,1.9L91.9,68.4z"
    />
</svg>
