<svg xmlns="http://www.w3.org/2000/svg" xml:space="preserve" viewBox="0 0 113.4 113.4"><path fill="#1b1a19" fill-rule="evenodd" d="M3.4 23.8 26.3 0h77.3c2.6 0 5.1 1 6.9 2.8 1.8 1.8 2.9 4.2 2.9 6.8v75.3l-21.5 24.7c-.3.3-.6.7-.9 1-1.8 1.8-4.3 2.8-6.9 2.8H9.8c-2.6 0-5.1-1-6.9-2.8-1.9-1.8-2.9-4.3-2.9-6.8V31c0-2.5 1-5 2.8-6.7.2-.1.4-.3.6-.5" clip-rule="evenodd"/><path fill="#fff" d="m6.7 27.3 21-21.8.6-.7h75.2c1.3 0 2.6.5 3.5 1.4.9.9 1.4 2.1 1.4 3.4v73.6l-.5.6L88 106.7c-.2.2-.3.4-.5.6-.9.9-2.1 1.4-3.5 1.4H9.8c-1.4 0-2.6-.5-3.5-1.4-.9-.9-1.4-2.1-1.4-3.4V31c0-1.3.6-2.5 1.4-3.4.1-.1.3-.2.4-.3"/><path fill="#1b1a19" d="M85.3 103.3v-74h-75v73.9h75zm-77.2-74 .1-1.1c.1-.2.2-.4.4-.5 6.5-6.4 14.1-13.1 20.9-19.4l.3-.3h75.5v74.1l-.2.3-17.6 22c0 .1 0 .1-.1.2 0 0-.6.7-.7.8l-76.9.2c-.2 0-.4 0-.6-.1h-.1l-.5-.3c-.1-.1-.3-.3-.4-.5-.1-.2-.1-.4-.1-.6V29.3zm77.8-2.1 15.8-17.1H30.6L12.5 27.2h73.4zm17.2-15.4L87.5 28.7v72l15.6-19.5V11.8z"/><path fill="#e8ab59" d="m88.9 10.1 9.2 3.9 3.6-3.9zm-61.4 3c1.1.1 11.4-3 11.5-3h-8.3l-3.2 3zm-1.4 14.1-9.4-3.9-4.2 3.9z"/><path fill="#eaa573" d="m92.9 19.7-23.6 7.5H32.6L19.1 21l4-3.8 21.6-7.1h38l13.6 5.8z"/><path fill="#e8ab59" d="m76.4 27.2 13.4-4.1-3.9 4.1z"/><path fill="#1b1a19" fill-rule="evenodd" d="m88.9 10.1 9.2 4-1.7 1.9-13.7-5.9h6.2zm-61.4 3c1.1.1 11.5-3 11.5-3h5.7l-21.6 7.1 4.4-4.1zM19.1 21l13.5 6.2h-6.4l-9.4-4 2.3-2.2zm57.3 6.2L89.8 23l3.1-3.4-23.6 7.6h7.1z" clip-rule="evenodd"/><path fill="#a2753b" d="M30.4 29.3H10.3v74h37.6V49.5z"/><path fill="#eaa573" d="M67.2 29.3H34.4l14.9 16.9z"/><path fill="#a2753b" d="M85.3 103.3v-74H71.5L50.6 49.5v53.8z"/><path fill="#1b1a19" fill-rule="evenodd" d="m97 18.3-.7 11.5-2.1-8.4-1.7 1.9 2.3 8.4v60.9l2.7-1.2V31.2l2-15.5z" clip-rule="evenodd"/><path fill="#a2753b" d="m92.5 23.3-5 5.4v72l7.3-9.1V31.7z"/><path fill="#eaa573" d="m97 18.3-2.8 3.1 2.1 8.4z"/><path fill="#a2753b" d="m103.1 11.8-3.6 3.9-2 15.5v57l5.6-7z"/><path fill="#5f4322" fill-rule="evenodd" d="M9.7 46.8h76.6v2.4H9.7zm0 20.6h76.6v2.4H9.7zm-.8 17.9h76.6v2.4H8.9z" clip-rule="evenodd"/><path fill="#5f4322" fill-rule="evenodd" d="m85.4 47.5 19.4-24v2.4l-19.4 24zm0 20.6 19.4-24v2.4l-19.4 24zm-.2 18.2 19.4-24v2.4l-19.4 24z" clip-rule="evenodd"/><path fill="#1b1a19" fill-rule="evenodd" d="M47.2 47.3h4.3v57.1h-4.3zm47.2-17.1 3.3-.7v59.3l-3.3 4.1zM29.7 25c3.1-1.9 17-13.4 17-13.4l38.6.9-16 12.7-39.6-.2zm38.4-7.7L64.6 20l8.6.1 3.5-2.8h-8.6zm-4.8 3.8L60 23.7h8.6l3.3-2.6h-8.6zm-13 .1-3 2.5H57l3-2.5h-9.7zm4.4-3.9L51.6 20H61l3.4-2.6-9.7-.1zm5.1-3.9L56.1 16h9.6l3.7-2.6h-9.6zm-12.9-.2-3.6 2.7 8.7.2 4-2.8-9.1-.1zm-5.1 4.2-3.4 2.5h9.7l2.8-2.4-9.1-.1zM37.2 21l-3.9 2.8 10.8-.1 3-2.5-9.9-.2zm35.9-7.6L69.4 16l8.8.2 4.1-2.7-9.2-.1z" clip-rule="evenodd"/><path fill="#1b1a19" fill-rule="evenodd" d="m34.4 29.3 14.9 16.9 17.9-16.9h4.3L50.6 49.5V104h-2.7V49.5L30.4 29.3zm49.7-.8h2.2l2.1-1.5v75.1l-2.4 1.6h-1.9zm-75.2.3h4.3v75H8.9zm94.2-18.2h2.1V82l-2.1 1.5z" clip-rule="evenodd"/><path fill="#1b1a19" fill-rule="evenodd" d="m63.3 58 .4 2.4 6.5.6 1.6-2.5-8.5-.5zm28.1-.5-.1.5-.2 2.7.3.5.1-2-.1-1.7zm-2.9 6.1-.9-1.6v-4.9l3-6.2 1-2 .9 2.1 2.8 6.9-.2 3.1-.9 2.1.6.5.5 2.1-.7 2.2-.7.7-1.2 1.2-1.7-.4-2-.4-1.3-2.8.8-2.6zm-64.3 9.5-.4-22.6h6L29.4 72l9.4-5.1-1.6 23.4-8.2-8.6-5.2-.8-.1-7.8h.5zm36.3-7.6-1.7-.2L56.6 53l24.8.2-7.4 14-2-.2-.5 25.4L60.3 89l3.5-2.4-3-1.9 1.9-1.7-4.6-2 3.7-3.2-4.1-1.9 3.8-2.4-3.4-2.5 3-2.5-1.6-2.5 1-.5z" clip-rule="evenodd"/><path fill="#674b26" fill-rule="evenodd" d="m58 54.2 1.8 10 13.3 1.7 6.1-11.5-21.2-.2zm3.8 2.5.8 4.8 8.2.8 3.1-4.8-12.1-.8z" clip-rule="evenodd"/><path fill="#c6c5c6" fill-rule="evenodd" d="m62.8 65.6-1.6.8 1.6 2.3-2.7 2.2 3.7 2.5-3.5 2.2 3.8 1.8-3.7 3.2 4.6 2-2.1 1.9 3.1 2-2.9 2 7.2 2.2.5-24.7z" clip-rule="evenodd"/><path fill="#674b26" fill-rule="evenodd" d="M25.1 51.7h3.4l-.4 21.8-2.6.1z" clip-rule="evenodd"/><path fill="#c6c5c6" fill-rule="evenodd" d="m24.9 74.3.1 5.6 4.2.2-.3-5.8zM37.4 69l-7.8 4.3.2 7.5 6.4 6.6z" clip-rule="evenodd"/><path fill="#674b26" fill-rule="evenodd" d="m90.9 53.2-.8 4.8-.2 3.1 1.8 2.6-.8 1.4-2.1-3.4v-4.3zm1.3.3.6 5.7-.1 2.1-.4 3.1 1.6-3.6.2-2.7z" clip-rule="evenodd"/><path fill="#c6c5c6" fill-rule="evenodd" d="m91.9 68.4-1.2-1.1-.1-1.5 1.3-.9s.6.2.7.4c.1.2.3 2 .3 2l-.2.8.9-.8.5-1.6-.3-1.4-1.3-1-1.5.1-1.3.6-.6 2.1.8 1.9 2 .4z" clip-rule="evenodd"/></svg>