<?xml version="1.0" standalone="no"?>
<!DOCTYPE svg PUBLIC "-//W3C//DTD SVG 20010904//EN"
 "http://www.w3.org/TR/2001/REC-SVG-20010904/DTD/svg10.dtd">
<svg version="1.0" xmlns="http://www.w3.org/2000/svg"
 width="700.000000pt" height="700.000000pt" viewBox="0 0 700.000000 700.000000"
 preserveAspectRatio="xMidYMid meet">
<metadata>
Created by potrace 1.14, written by Peter Selinger 2001-2017
</metadata>
<g transform="translate(0.000000,700.000000) scale(0.100000,-0.100000)"
fill="#000000" stroke="none">
<path d="M1873 6562 c-11 -2 -54 -38 -93 -80 -40 -42 -170 -178 -289 -301
-119 -123 -238 -248 -266 -276 -262 -274 -468 -488 -559 -580 -60 -60 -124
-130 -141 -155 -39 -56 -73 -144 -82 -213 -11 -95 -7 -4036 5 -4100 42 -219
234 -389 467 -414 87 -10 4085 -8 4140 1 168 28 240 77 418 281 67 77 133 154
148 170 15 17 60 68 100 115 41 47 76 87 79 90 3 3 46 52 95 110 50 58 104
121 122 140 37 42 61 68 116 134 23 27 56 64 72 82 17 18 50 56 75 85 25 29
92 107 149 174 58 66 111 128 120 138 13 15 14 272 14 2075 0 1892 -2 2062
-17 2122 -56 216 -231 371 -447 396 -60 7 -4179 13 -4226 6z"/>
</g>
</svg>
